<svg id="Largo_Negro_Minimal_baja_resolución" data-name="Largo Negro Minimal baja resolución" xmlns="http://www.w3.org/2000/svg" viewBox="0 0 197.61 25.13"><title>logocycminimalblack</title><path d="M918.41,113.65l-.76,3.59H917a3.88,3.88,0,0,0-1.59-1.8,4.29,4.29,0,0,0-2.25-.66q-3,0-5.41,3.25a13.37,13.37,0,0,0-2.42,8.2,8.65,8.65,0,0,0,1.56,5.47,4.84,4.84,0,0,0,4,2q3.36,0,5.69-3.81l.5.59Q914.23,135,910,135a6.57,6.57,0,0,1-5.23-2.42,9.25,9.25,0,0,1-2.06-6.21,12.84,12.84,0,0,1,3.25-8.54q3.25-3.81,7.23-3.81a9.36,9.36,0,0,1,2.14.29,11.45,11.45,0,0,0,1.42.29q.5,0,1.08-.92Z" transform="translate(-902.68 -112.96)"/><path d="M926.25,113l-2.36,11.31.08.09a6,6,0,0,1,4.19-2.14,3.12,3.12,0,0,1,2.36,1,3.56,3.56,0,0,1,.93,2.56,6.4,6.4,0,0,1-.12,1.2l-1.08,5.33a3.8,3.8,0,0,0-.09.71q0,.8,1.29.92l-.14.62h-5.11l.14-.62a1.79,1.79,0,0,0,1.32-.58,5.48,5.48,0,0,0,.65-1.84l1-4.71a5.33,5.33,0,0,0,.11-1,1.89,1.89,0,0,0-2.18-2.11q-1.66,0-3.59,2.09l-1.37,6.71a2.52,2.52,0,0,0-.07.53q0,.92,1.43.92l-.14.62h-4.92l.14-.62a1.07,1.07,0,0,0,1-.52,7.08,7.08,0,0,0,.58-1.9l3.12-15.15a6.46,6.46,0,0,0,.18-1.1.65.65,0,0,0-.4-.67,4.27,4.27,0,0,0-1.41-.16l.11-.53,3.63-.92Z" transform="translate(-902.68 -112.96)"/><path d="M946.47,122.21l-1.93,8.91a5.18,5.18,0,0,0-.11.95q0,1.47,1.63,1.25l-.14.62-4.23.92.49-2.34-.07-.07a5.31,5.31,0,0,1-4.24,2.48q-3.46,0-3.46-3.73a8.23,8.23,0,0,1,3-6.26,11.5,11.5,0,0,1,8-2.73Zm-2.4,1.33a9.21,9.21,0,0,0-1-.05,6.17,6.17,0,0,0-4.81,2.07,7.26,7.26,0,0,0-1.86,5q0,2.9,2.48,2.9a3.55,3.55,0,0,0,2.37-1,5.48,5.48,0,0,0,1.14-1.14Z" transform="translate(-902.68 -112.96)"/><path d="M953.65,122.39l-1,4.57.07.07q1.74-4.81,3.85-4.81a1.81,1.81,0,0,1,1.45,1l-1.25,2.21q-1-1.08-1.42-1.08-.66,0-1.71,2.14a17.55,17.55,0,0,0-1.44,3.91l-.39,1.84a2.48,2.48,0,0,0-.07.57q0,1.1,1.4,1.1h.51l-.11.62H947.7l.11-.62a1.88,1.88,0,0,0,1.4-.38,5.2,5.2,0,0,0,.67-2l1.2-5.54a5.63,5.63,0,0,0,.14-1.12q0-1.1-.87-1.1-.2,0-1.2.14l.14-.73,3.63-.83Z" transform="translate(-902.68 -112.96)"/><path d="M968.5,122.14l-.39,3.47h-.51a2.15,2.15,0,0,0-.58-1.71,2.32,2.32,0,0,0-1.71-.62q-1.72,0-3,2.09a9,9,0,0,0-1.32,4.92q0,3.2,2.55,3.2a5.64,5.64,0,0,0,3.7-1.61l.39.45q-2.69,2.61-5.15,2.61a3.26,3.26,0,0,1-2.61-1.2,4.66,4.66,0,0,1-1-3.12A9,9,0,0,1,961,125q2.2-2.74,4.63-2.74a6,6,0,0,1,1.27.11,4,4,0,0,0,.58.11.76.76,0,0,0,.62-.28Z" transform="translate(-902.68 -112.96)"/><path d="M982.76,122.21l-1.83,8.73a6.94,6.94,0,0,0-.18,1.53q0,1.26,1.52,1.1l-.14.62-4.18.67.49-2.3-.05-.09q-2.74,2.46-4.64,2.46a2.62,2.62,0,0,1-2-.88,3.24,3.24,0,0,1-.79-2.26,10.18,10.18,0,0,1,.25-2.09l.92-4.21a4.57,4.57,0,0,0,.09-.8q0-.9-1.19-.9a4.77,4.77,0,0,0-.55,0l.13-.62,3.59-1h.73l-1.67,8a11.23,11.23,0,0,0-.21,1.45,1.92,1.92,0,0,0,.53,1.36,1.68,1.68,0,0,0,1.27.57,4.23,4.23,0,0,0,2.51-1,5.74,5.74,0,0,0,1.4-1.26l1.27-5.91a2.83,2.83,0,0,0,.05-.51q0-1.08-1-1.08a4,4,0,0,0-.69.07l.11-.62,3.6-1Z" transform="translate(-902.68 -112.96)"/><path d="M992.75,122.6l-.18,1h-3.33l-1.76,8.28a2.86,2.86,0,0,0-.07.58q0,1,.9,1,1.47,0,3.78-1.93l.44.45q-3.26,2.93-5.66,2.93-1.66,0-1.66-1.52a15.54,15.54,0,0,1,.39-2.51l1.58-7.31H985l.11-.62q2.86-.28,4.38-3.52h.64l-.67,3.15Z" transform="translate(-902.68 -112.96)"/><path d="M996.43,129.2a7.65,7.65,0,0,0-.05.87q0,3.19,2.92,3.19,2.12,0,4.05-2.57l.37.49a11,11,0,0,1-2.5,2.87,4.87,4.87,0,0,1-3,.89,3.84,3.84,0,0,1-2.89-1.05,4.12,4.12,0,0,1-1-3,9,9,0,0,1,2.33-6,6.73,6.73,0,0,1,5.12-2.7,2.54,2.54,0,0,1,1.73.56,1.89,1.89,0,0,1,.64,1.5q0,1.58-2.07,3A13.76,13.76,0,0,1,996.43,129.2Zm.16-.65q5.43-1,5.43-3.63a1.32,1.32,0,0,0-.47-1,1.5,1.5,0,0,0-1.05-.44,3.21,3.21,0,0,0-2.5,1.57A7.3,7.3,0,0,0,996.59,128.55Z" transform="translate(-902.68 -112.96)"/><path d="M1010.64,122.39l-1,4.57.07.07q1.74-4.81,3.85-4.81a1.81,1.81,0,0,1,1.45,1l-1.25,2.21q-1-1.08-1.42-1.08-.66,0-1.71,2.14a17.52,17.52,0,0,0-1.44,3.91l-.39,1.84a2.46,2.46,0,0,0-.07.57q0,1.1,1.4,1.1h.51l-.11.62h-5.86l.11-.62a1.88,1.88,0,0,0,1.4-.38,5.2,5.2,0,0,0,.67-2l1.2-5.54a5.66,5.66,0,0,0,.14-1.12q0-1.1-.87-1.1c-.13,0-.53,0-1.2.14l.14-.73,3.63-.83Z" transform="translate(-902.68 -112.96)"/><path d="M1021.77,122.28l-2,9.27a8.16,8.16,0,0,0-.19,1.38.82.82,0,0,0,.34.77,4,4,0,0,0,1.67.2l-.11.62h-6.37l.14-.62a3.57,3.57,0,0,0,1.66-.24q.35-.24.66-1.6l1.42-6.57a4.68,4.68,0,0,0,.11-.84q0-.91-1-.91l-1.42.18.14-.73,4.21-.92Zm2.91-9.33-3.8,7h-.73l2.55-7Z" transform="translate(-902.68 -112.96)"/><path d="M1036.7,122.21l-1.93,8.91a5.07,5.07,0,0,0-.11.95q0,1.47,1.63,1.25l-.14.62-4.23.92.49-2.34-.07-.07a5.31,5.31,0,0,1-4.24,2.48q-3.46,0-3.46-3.73a8.23,8.23,0,0,1,3-6.26,11.5,11.5,0,0,1,8-2.73Zm-2.4,1.33a9.19,9.19,0,0,0-1-.05,6.17,6.17,0,0,0-4.81,2.07,7.26,7.26,0,0,0-1.86,5q0,2.9,2.48,2.9a3.55,3.55,0,0,0,2.37-1,5.45,5.45,0,0,0,1.14-1.14Z" transform="translate(-902.68 -112.96)"/><path d="M1064,113.65l-.76,3.59h-.62a3.88,3.88,0,0,0-1.59-1.8,4.29,4.29,0,0,0-2.25-.66q-3,0-5.41,3.25a13.37,13.37,0,0,0-2.42,8.2,8.66,8.66,0,0,0,1.56,5.47,4.84,4.84,0,0,0,4,2q3.36,0,5.69-3.81l.5.59q-2.87,4.49-7.13,4.49a6.57,6.57,0,0,1-5.23-2.42,9.25,9.25,0,0,1-2.06-6.21,12.84,12.84,0,0,1,3.25-8.54q3.25-3.81,7.23-3.81a9.36,9.36,0,0,1,2.14.29,11.47,11.47,0,0,0,1.42.29q.5,0,1.08-.92Z" transform="translate(-902.68 -112.96)"/><path d="M1089.31,135.65l-.14.69a7.92,7.92,0,0,1-4.8,1.75q-4.76,0-8.73-5.15a7.91,7.91,0,0,1-5.08,2,5.41,5.41,0,0,1-3.85-1.58,4.89,4.89,0,0,1-1.65-3.65q0-3.61,4.78-5.88a7.94,7.94,0,0,1-.83-3.42,5,5,0,0,1,1.41-3.62,4.73,4.73,0,0,1,3.53-1.44,3.78,3.78,0,0,1,2.58.9,2.86,2.86,0,0,1,1,2.25,3.44,3.44,0,0,1-1.29,2.62,14.84,14.84,0,0,1-4,2.3,32.5,32.5,0,0,0,4.46,7,7.6,7.6,0,0,0,2.25-5q0-1.73-1.42-1.73a5.37,5.37,0,0,0-.83.11l-.28-.41a3.93,3.93,0,0,1,1.84-.5,2,2,0,0,1,1.46.57,1.91,1.91,0,0,1,.58,1.42,7.7,7.7,0,0,1-.83,3.09,11,11,0,0,1-2.11,3.12q4.11,5.47,8.48,5.47A7.93,7.93,0,0,0,1089.31,135.65Zm-19.17-11.12a4.62,4.62,0,0,0-2.62,4.35,4.4,4.4,0,0,0,1.3,3.21,4.27,4.27,0,0,0,3.16,1.32,4.75,4.75,0,0,0,3.08-1.2A45.64,45.64,0,0,1,1070.14,124.53Zm.87-5.29a8.39,8.39,0,0,0,.87,3.63q3.59-1.52,3.59-4.18a2.05,2.05,0,0,0-.63-1.52,2.12,2.12,0,0,0-1.55-.62,2.05,2.05,0,0,0-1.63.77A2.86,2.86,0,0,0,1071,119.24Z" transform="translate(-902.68 -112.96)"/><path d="M1100.29,113.65l-.76,3.59h-.62a3.88,3.88,0,0,0-1.59-1.8,4.29,4.29,0,0,0-2.25-.66q-3,0-5.41,3.25a13.37,13.37,0,0,0-2.42,8.2,8.66,8.66,0,0,0,1.56,5.47,4.84,4.84,0,0,0,4,2q3.36,0,5.69-3.81l.5.59q-2.87,4.49-7.13,4.49a6.57,6.57,0,0,1-5.23-2.42,9.25,9.25,0,0,1-2.06-6.21,12.84,12.84,0,0,1,3.25-8.54Q1091,114,1095,114a9.36,9.36,0,0,1,2.14.29,11.47,11.47,0,0,0,1.42.29q.5,0,1.08-.92Z" transform="translate(-902.68 -112.96)"/></svg>